<?xml version="1.0" encoding="UTF-8" standalone="no"?>
<svg
   version="1.0"
   width="673.68658pt"
   height="663.77563pt"
   viewBox="0 0 673.68658 663.77563"
   preserveAspectRatio="xMidYMid"
   id="svg31"
   sodipodi:docname="cristoforo_invoice_logo.svg"
   inkscape:version="1.3 (0e150ed6c4, 2023-07-21)"
   xmlns:inkscape="http://www.inkscape.org/namespaces/inkscape"
   xmlns:sodipodi="http://sodipodi.sourceforge.net/DTD/sodipodi-0.dtd"
   xmlns="http://www.w3.org/2000/svg"
   xmlns:svg="http://www.w3.org/2000/svg">
  <defs
     id="defs31" />
  <sodipodi:namedview
     id="namedview31"
     pagecolor="#ffffff"
     bordercolor="#eeeeee"
     borderopacity="1"
     inkscape:showpageshadow="0"
     inkscape:pageopacity="0"
     inkscape:pagecheckerboard="0"
     inkscape:deskcolor="#505050"
     inkscape:document-units="pt"
     showgrid="false"
     inkscape:zoom="0.5830078"
     inkscape:cx="544.58963"
     inkscape:cy="401.36684"
     inkscape:window-width="1920"
     inkscape:window-height="992"
     inkscape:window-x="-8"
     inkscape:window-y="-8"
     inkscape:window-maximized="1"
     inkscape:current-layer="g31"
     showguides="true" />
  <g
     transform="matrix(0.1,0,0,-0.1,-166.18843,828.77562)"
     fill="#000000"
     stroke="none"
     id="g31">
    <path
       d="M 4786,8279 C 4111,8230 3416,7961 2900,7549 2395,7146 2007,6588 1816,5991 c -102,-316 -145,-579 -153,-922 -10,-409 47,-772 180,-1164 102,-300 265,-611 457,-872 621,-841 1684,-1382 2715,-1383 213,0 346,11 550,46 420,73 863,242 1230,470 415,258 721,545 1008,947 192,268 356,603 451,922 193,650 193,1263 0,1903 -144,477 -404,921 -766,1306 -358,380 -844,683 -1386,862 -214,72 -370,109 -577,139 -293,43 -489,52 -739,34 z m -664,-556 c 25,-23 23,-68 -4,-87 -32,-23 -65,-20 -83,8 -40,60 34,127 87,79 z m 1050,-23 c 289,-64 526,-260 647,-537 56,-130 66,-182 66,-358 -1,-151 -8,-203 -37,-277 l -10,-28 h -535 -535 l 30,38 c 58,73 192,274 192,288 0,20 -40,18 -102,-7 -29,-11 -183,-63 -343,-115 -159,-52 -331,-110 -382,-128 l -92,-33 -8,46 c -4,25 -7,114 -7,196 2,177 18,254 88,398 127,262 378,457 670,522 92,20 256,18 358,-5 z m 1019,-39 c 10,-13 19,-32 19,-42 0,-18 -10,-19 -175,-19 -164,0 -175,1 -175,19 0,10 10,31 21,46 l 22,27 134,-4 c 128,-3 136,-4 154,-27 z m -2363,-28 c 12,-7 30,-29 39,-47 15,-31 18,-33 54,-29 34,5 43,1 74,-30 37,-37 48,-90 23,-115 -9,-9 -76,-12 -240,-12 h -228 l -6,24 c -10,42 30,101 77,111 16,4 29,13 29,20 0,21 51,76 85,91 32,14 56,11 93,-13 z m 2792,-213 c 24,-24 25,-47 3,-72 -23,-26 -59,-23 -78,6 -18,27 -9,57 23,75 24,15 29,14 52,-9 z m -386,-81 c 14,-17 26,-35 26,-40 0,-5 11,-7 24,-3 28,7 81,-18 90,-41 10,-27 7,-70 -6,-83 -13,-13 -311,-18 -342,-6 -22,8 -21,67 2,86 9,8 29,19 45,26 15,6 27,19 27,27 0,9 11,27 25,40 35,35 76,33 109,-6 z m -2806,-29 c 18,-11 41,-37 50,-58 17,-36 18,-37 56,-27 74,18 156,-55 156,-141 0,-75 5,-74 -311,-74 h -279 l -6,25 c -12,49 28,109 81,124 22,5 31,16 41,49 6,23 20,54 29,68 34,53 125,69 183,34 z m 3469,-221 c 141,-48 270,-175 309,-304 58,-191 11,-360 -139,-501 -121,-113 -117,-114 -117,3 0,88 -3,102 -25,135 -22,32 -23,37 -9,49 55,46 72,176 33,257 -24,48 -86,95 -150,112 -139,38 -286,-86 -277,-232 3,-42 12,-70 36,-108 30,-49 31,-53 17,-80 -10,-19 -15,-58 -15,-114 0,-120 -1,-122 -62,-89 -93,51 -176,161 -212,282 -22,76 -21,213 3,290 78,249 356,387 608,300 z m -709,-61 c 7,-7 12,-22 12,-34 0,-51 -72,-61 -78,-11 -6,47 36,75 66,45 z M 3458,6838 c 7,-7 12,-21 12,-33 0,-47 -62,-63 -81,-21 -22,47 33,90 69,54 z m -465,-32 c 78,-28 136,-90 158,-168 10,-38 10,-38 62,-38 96,-1 175,-57 197,-142 13,-46 8,-79 -16,-102 -14,-14 -70,-16 -465,-16 h -449 l -6,25 c -9,35 33,115 74,142 18,12 50,24 72,28 39,7 40,8 40,48 0,50 31,121 68,161 62,66 177,93 265,62 z m 937,-12 c 52,-35 50,-3 50,-716 v -668 h -170 -170 v 668 c 0,617 2,669 18,688 29,36 54,43 152,44 72,0 102,-4 120,-16 z m 2882,-193 33,-29 3,-418 3,-418 -93,-93 c -51,-51 -95,-93 -98,-93 -4,0 -5,965 -1,1018 1,7 12,24 26,37 35,35 85,34 127,-4 z m 785,-153 83,-82 -32,-33 c -18,-18 -37,-33 -42,-33 -6,0 -46,37 -88,82 l -77,83 31,32 c 18,18 34,33 37,33 3,0 43,-37 88,-82 z m -141,-180 c 4,-6 -29,-45 -72,-87 -119,-114 -422,-391 -428,-391 -3,0 -6,44 -6,99 v 98 l 108,104 c 59,57 149,141 200,187 l 93,83 49,-41 c 28,-23 53,-47 56,-52 z m -1267,43 c 21,-11 47,-32 57,-48 18,-27 19,-64 22,-1045 1,-560 -1,-1018 -5,-1018 -4,0 -40,33 -80,72 l -73,72 v 141 c 0,193 7,185 -165,185 -123,0 -135,-2 -145,-19 -6,-13 -10,-243 -10,-676 v -656 l 25,-24 24,-25 h 239 c 232,0 240,1 273,23 18,12 39,34 46,47 10,19 13,204 13,821 0,438 3,891 7,1007 l 6,212 h 94 93 V 4226 3071 l -557,-4 c -523,-3 -564,-5 -648,-24 -139,-33 -291,-93 -353,-139 -32,-25 -32,-25 -60,-6 -78,55 -222,110 -382,145 -91,19 -131,21 -862,24 l -767,4 -6,62 c -3,34 -5,520 -3,1079 l 3,1018 510,2 510,3 5,-978 c 5,-954 5,-979 24,-993 40,-29 107,-11 131,35 13,27 15,191 15,1478 0,1427 0,1448 20,1481 11,18 34,41 52,52 32,20 53,20 971,20 909,0 939,-1 976,-19 z M 2437,6207 c 15,-19 25,-22 64,-19 41,3 49,1 68,-23 25,-33 26,-48 5,-69 -13,-13 -43,-16 -175,-16 -154,0 -159,1 -159,20 0,24 42,70 65,70 8,0 15,5 15,12 0,47 85,65 117,25 z m 5332,-259 144,-148 h -58 -57 l 4,-907 3,-908 h -387 -388 v 661 c 0,363 -2,663 -4,665 -2,2 -37,2 -77,1 l -72,-4 7,-1210 7,-1211 85,-108 c 46,-59 84,-110 84,-113 0,-8 -1769,-8 -1808,0 -22,5 -34,16 -47,44 -9,21 -28,43 -41,51 -13,7 -24,16 -24,20 0,26 142,79 279,105 72,14 182,18 681,21 488,4 600,7 622,19 60,31 56,-32 64,1218 l 7,1147 286,284 c 350,347 534,525 541,522 4,-1 70,-68 149,-149 z m -4958,-58 c 2.4982,-166.0772 4,-325.3893 4,-495 l -5,-705 -5,-705 -295,2 -295,1 -3,174 c -2,95 0,188 3,206 10,55 40,67 171,63 l 114,-3 v 687 c 0,737 0,733 51,769 18,12 48,16 132,16 60,0 117,-5 128,-10 z m -441,-120 c 24,-24 25,-34 4,-54 -11,-12 -35,-16 -84,-16 -58,0 -71,3 -79,19 -8,14 -6,25 10,45 18,22 28,26 75,26 41,0 59,-5 74,-20 z m 0,-270 c 24,-24 25,-38 3,-62 -12,-14 -31,-18 -79,-18 -58,0 -65,2 -81,26 -17,26 -16,27 11,50 36,32 116,34 146,4 z m 16,-305 c 15,-23 15,-27 0,-50 -15,-22 -23,-25 -81,-25 -72,0 -110,23 -98,57 11,32 36,43 100,43 56,0 64,-3 79,-25 z m -14,-302 c 24,-21 23,-60 -1,-73 -11,-5 -46,-10 -79,-10 -45,0 -63,4 -76,19 -20,22 -10,52 22,70 28,17 113,13 134,-6 z m 3702,-865 c 14,-19 16,-63 16,-284 0,-249 -1,-262 -20,-279 -16,-15 -26,-17 -48,-9 l -27,9 -3,274 c -2,244 -1,276 14,293 23,24 49,23 68,-4 z M 2810,3725 v -75 h -273 c -295,0 -308,2 -321,55 -7,27 15,80 36,88 7,3 136,6 286,6 l 272,1 z m 4985,50 c 14,-13 25,-36 25,-50 0,-14 -11,-37 -25,-50 l -24,-25 h -345 -345 l -20,26 c -28,35 -26,69 4,99 l 24,25 h 341 341 z M 2810,3405 v -75 h -154 c -85,0 -162,3 -171,6 -22,9 -47,61 -40,84 3,11 18,29 32,40 23,18 40,20 179,20 h 154 z m 4751,46 c 34,-35 36,-59 8,-95 l -20,-26 h -232 c -128,0 -237,4 -243,8 -16,11 -34,48 -34,72 0,11 11,32 25,45 l 24,25 h 221 222 z M 2794,3154 c 12,-5 16,-21 16,-75 v -69 h -49 c -81,0 -123,51 -90,111 17,32 81,49 123,33 z m 4538,-21 c 11,-10 18,-30 18,-54 0,-59 -23,-69 -154,-69 -99,0 -112,2 -133,22 -27,26 -30,73 -6,100 14,15 33,18 136,18 98,0 124,-3 139,-17 z M 4612,2885 c 108,-16 209,-46 256,-75 l 34,-21 -34,-37 c -18,-20 -40,-48 -49,-62 l -16,-25 -912,-3 c -501,-2 -911,-1 -911,2 0,3 36,54 81,112 44,58 83,113 86,122 6,14 78,14 689,8 505,-5 707,-10 776,-21 z m 247,-408 c 9,-29 92,-96 126,-103 77,-14 168,25 200,86 l 16,30 342,-1 c 222,0 334,-4 319,-10 -63,-25 -238,-51 -380,-56 l -153,-6 -41,-59 c -70,-100 -174,-147 -295,-135 -102,11 -221,89 -253,167 l -11,27 -152,6 c -147,6 -292,25 -387,50 -40,11 -20,13 185,18 297,8 479,3 484,-14 z"
       id="path1"
       sodipodi:nodetypes="ccccccccccccccccccccccccccccsccccccccccssscccccccssscccsccscccscsccscccscccccsscccccccccscccccccsccccsscssscscccccsccccscccscccscccccccssccccccscccscccsscccccccccsccsscscccsscscccccccccccccccccccccsccsccccssssscccccccccsscccccscccsccccccccccccccccccscscscsccssscsccsccscscccsccccsccccccccsccccccsccccccccccccscccscccccscsccccccscscccssccsccccccccscccccccccccccccccccc"
       style="stroke:#ffffff;fill:#ffffff" />
    <path
       d="m 3155,4706 c -22,-33 -16,-65 15,-87 23,-16 51,-17 385,-11 l 359,7 16,28 c 13,24 13,30 0,55 l -16,27 -372,3 -371,2 z"
       id="path18"
       style="stroke:#ffffff;fill:#ffffff" />
    <path
       d="m 3156,4408 c -21,-30 -20,-61 2,-81 17,-15 58,-17 385,-17 h 366 l 15,22 c 21,30 20,54 -4,78 -19,19 -33,20 -384,20 h -365 z"
       id="path22"
       style="stroke:#ffffff;fill:#ffffff" />
    <path
       d="m 3160,4110 c -24,-24 -25,-48 -4,-78 l 15,-22 h 369 369 l 15,22 c 21,30 20,54 -4,78 -19,19 -33,20 -380,20 -347,0 -361,-1 -380,-20 z"
       id="path23"
       style="stroke:#ffffff;fill:#ffffff" />
    <path
       d="m 3160,3810 c -27,-27 -25,-56 5,-86 l 25,-25 361,3 c 344,3 361,4 375,22 20,28 17,63 -6,86 -19,19 -33,20 -380,20 -347,0 -361,-1 -380,-20 z"
       id="path27"
       style="stroke:#ffffff;fill:#ffffff" />
    <path
       d="m 3157,3502 c -23,-25 -21,-58 3,-82 19,-19 33,-20 383,-20 340,0 365,1 380,18 21,23 22,51 1,80 l -15,22 h -368 c -344,0 -369,-1 -384,-18 z"
       id="path31"
       style="stroke:#ffffff;fill:#ffffff" />
    <path
       id="rect31"
       style="opacity:1;fill:#ffffff;fill-rule:evenodd;stroke:#ffffff;stroke-width:7.51178;stroke-linejoin:round"
       d="m 4386.4453,-6110.21 c -21.2406,0 -38.3496,12.8661 -38.3496,28.8428 v 533.584 c 0,15.9768 17.109,28.8428 38.3496,28.8428 h 1697.124 c 21.2406,0 38.335,-12.866 38.335,-28.8428 v -533.584 c 0,-15.9767 -17.0944,-28.8428 -38.335,-28.8428 z m 176.5283,119.3555 H 5907.041 c 16.8219,0 30.3662,7.6706 30.3662,17.1973 v 318.164 c 0,9.5267 -13.5443,17.1973 -30.3662,17.1973 H 4562.9736 c -16.8219,0 -30.3662,-7.6706 -30.3662,-17.1973 v -318.164 c 0,-9.5267 13.5443,-17.1973 30.3662,-17.1973 z"
       transform="scale(1,-1)" />
    <rect
       style="opacity:1;fill:#ffffff;fill-rule:evenodd;stroke:#ffffff;stroke-width:7.51178;stroke-linejoin:round"
       id="rect32"
       width="295.63458"
       height="295.63458"
       x="4360.9512"
       y="-4662.395"
       transform="scale(1,-1)"
       rx="38.340488"
       ry="28.838936" />
    <rect
       style="opacity:1;fill:#ffffff;fill-rule:evenodd;stroke:#ffffff;stroke-width:7.51178;stroke-linejoin:round"
       id="rect34"
       width="295.63458"
       height="295.63458"
       x="4846.5791"
       y="-4662.395"
       transform="scale(1,-1)"
       rx="38.340488"
       ry="28.838936" />
    <rect
       style="opacity:1;fill:#ffffff;fill-rule:evenodd;stroke:#ffffff;stroke-width:7.51178;stroke-linejoin:round"
       id="rect35"
       width="295.63458"
       height="295.63458"
       x="5316.127"
       y="-4668.8271"
       transform="scale(1,-1)"
       rx="38.340488"
       ry="28.838936" />
    <rect
       style="opacity:1;fill:#ffffff;fill-rule:evenodd;stroke:#ffffff;stroke-width:7.51178;stroke-linejoin:round"
       id="rect36"
       width="295.63458"
       height="295.63458"
       x="4357.7349"
       y="-4125.3096"
       transform="scale(1,-1)"
       rx="38.340488"
       ry="28.838936" />
    <rect
       style="opacity:1;fill:#ffffff;fill-rule:evenodd;stroke:#ffffff;stroke-width:7.51178;stroke-linejoin:round"
       id="rect37"
       width="295.63458"
       height="295.63458"
       x="4843.3628"
       y="-4125.3096"
       transform="scale(1,-1)"
       rx="38.340488"
       ry="28.838936" />
    <rect
       style="opacity:1;fill:#ffffff;fill-rule:evenodd;stroke:#ffffff;stroke-width:7.51178;stroke-linejoin:round"
       id="rect38"
       width="295.63458"
       height="295.63458"
       x="5312.9106"
       y="-4131.7417"
       transform="scale(1,-1)"
       rx="38.340488"
       ry="28.838936" />
    <rect
       style="opacity:1;fill:#ffffff;fill-rule:evenodd;stroke:#ffffff;stroke-width:7.51178;stroke-linejoin:round"
       id="rect39"
       width="295.63458"
       height="295.63458"
       x="4357.7349"
       y="-3597.8723"
       transform="scale(1,-1)"
       rx="38.340488"
       ry="28.838936" />
    <rect
       style="opacity:1;fill:#ffffff;fill-rule:evenodd;stroke:#ffffff;stroke-width:7.51178;stroke-linejoin:round"
       id="rect40"
       width="295.63458"
       height="295.63458"
       x="4843.3628"
       y="-3597.8723"
       transform="scale(1,-1)"
       rx="38.340488"
       ry="28.838936" />
    <rect
       style="opacity:1;fill:#ffffff;fill-rule:evenodd;stroke:#ffffff;stroke-width:7.51178;stroke-linejoin:round"
       id="rect41"
       width="295.63458"
       height="295.63458"
       x="5312.9106"
       y="-3604.3044"
       transform="scale(1,-1)"
       rx="38.340488"
       ry="28.838936" />
    <rect
       style="opacity:1;fill:#ffffff;fill-rule:evenodd;stroke:#ffffff;stroke-width:7.51178;stroke-linejoin:round"
       id="rect42"
       width="766.37579"
       height="125.07617"
       x="4359.4736"
       y="-5084.5879"
       transform="scale(1,-1)"
       rx="38.340488"
       ry="28.838936" />
    <rect
       style="opacity:1;fill:#ffffff;fill-rule:evenodd;stroke:#ffffff;stroke-width:7.51178;stroke-linejoin:round"
       id="rect43"
       width="270.61935"
       height="113.7056"
       x="5328.2446"
       y="-5082.3135"
       transform="scale(1,-1)"
       rx="38.340488"
       ry="28.838936" />
    <rect
       style="opacity:1;fill:#ffffff;fill-rule:evenodd;stroke:#ffffff;stroke-width:7.51178;stroke-linejoin:round"
       id="rect44"
       width="270.61935"
       height="113.7056"
       x="5787.6152"
       y="-5084.5874"
       transform="scale(1,-1)"
       rx="38.340488"
       ry="28.838936" />
    <path
       style="fill:#ffffff;stroke:#ffffff;stroke-width:7.5px;stroke-linecap:butt;stroke-linejoin:miter;stroke-opacity:1"
       d="m 4952.5247,5638.2959 173.9696,183.1856 c 0,0 34.1117,28.4264 84.1422,28.4264 50.0305,0 785.7058,0 785.7058,0 l -7.9594,-252.4265 -1043.8175,-2.2741 z"
       id="path2" />
    <text
       xml:space="preserve"
       style="font-style:normal;font-weight:normal;font-size:300px;line-height:1.25;font-family:sans-serif;fill:#ffffff;fill-opacity:1;stroke:#ffffff;stroke-width:7.5"
       x="5265.5024"
       y="-5743.8369"
       id="text2"
       transform="scale(1,-1)"><tspan
         sodipodi:role="line"
         id="tspan2"
         style="stroke-width:7.5;stroke:#ffffff;fill:#ffffff"
         x="5265.5024"
         y="-5743.8369" /></text>
    <text
       xml:space="preserve"
       style="font-style:normal;font-weight:normal;font-size:200px;line-height:1.25;font-family:sans-serif;fill:#ffffff;fill-opacity:1;stroke:#ffffff;stroke-width:7.5"
       x="5373.2407"
       y="-5655.3945"
       id="text3"
       transform="scale(1,-1)"><tspan
         sodipodi:role="line"
         id="tspan3"
         style="font-size:200px;fill:#ffffff;stroke:#000000;stroke-width:7.5"
         x="5373.2407"
         y="-5655.3945">4  2</tspan></text>
  </g>
</svg>
